# xmcd
#
# Track frame offsets:
#	150
#	11065
#	22187
#	32765
#	41700
#	51867
#	64745
#	74632
#	88892
#	100080
#	111065
#	121555
#	133145
#	144530
#	158340
#	172035
#	185632
#	196220
#	206615
#	215195
#	226775
#	239717
#	248457
#	260335
#	272107
#	283225
#	295647
#	307790
#	317097
#	328822
#	338370
#
# Disc length: 4644 seconds
#
# Revision: 1
# Processed by: cddbd v1.4PL0 Copyright (c) Steve Scherf et al.
# Submitted via: audiograbber 1.80
#
DISCID=cf12221f
DTITLE=sheb wooley - that's my pa disc 4
DYEAR=1900
DGENRE=
TTITLE0=you still turn me on 1968
TTITLE1=the answer, my love 1966
TTITLE2=somebody please (say something funny) 1962
TTITLE3=a place to be lonely 1997
TTITLE4=the love-in 1967
TTITLE5=the one man band 1969
TTITLE6=good time charlie 1997
TTITLE7=i don't belong in her arms (devil don't tempt me) 1970
TTITLE8=land of no love 1962
TTITLE9=i remember loving you 1968
TTITLE10=not once but a hundred times 1967
TTITLE11=sittin' and thinkin' 1964
TTITLE12=a new kind of lonesome 1962
TTITLE13=juarez 1964
TTITLE14=i'll leave the singing to the bluebirds 1966
TTITLE15=joy 1971
TTITLE16=tie a tiger down 1968
TTITLE17=cheap hotel 1968
TTITLE18=the sun also rises 1968
TTITLE19=whirlpool of love 1997
TTITLE20=old rag joe 1963
TTITLE21=not since adam 1997
TTITLE22=make 'em laugh 1968
TTITLE23=life is a fountain 1972
TTITLE24=it's gold 1968
TTITLE25=goodbye wabash cannonball 1971
TTITLE26=a kick in the head 1972
TTITLE27=right is right and left is lonely 1968
TTITLE28=draggin' the river 1966
TTITLE29=wrap me up some hurt 1997
TTITLE30=doin' my thing 1997
EXTD=
EXTT0=
EXTT1=
EXTT2=
EXTT3=
EXTT4=
EXTT5=
EXTT6=
EXTT7=
EXTT8=
EXTT9=
EXTT10=
EXTT11=
EXTT12=
EXTT13=
EXTT14=
EXTT15=
EXTT16=
EXTT17=
EXTT18=
EXTT19=
EXTT20=
EXTT21=
EXTT22=
EXTT23=
EXTT24=
EXTT25=
EXTT26=
EXTT27=
EXTT28=
EXTT29=
EXTT30=
PLAYORDER=
